<?xml version="1.0" encoding="UTF-8" standalone="no"?>
<svg
   id="Layer_1"
   data-name="Layer 1"
   viewBox="0 0 167.36 161.51"
   version="1.1"
   xml:space="preserve"
   xmlns="http://www.w3.org/2000/svg"
   xmlns:svg="http://www.w3.org/2000/svg"><defs
     id="defs1"><style
       id="style1">.cls-1{fill:#fff;}</style><style
       id="style9022">.cls-1{fill:#fff;}</style><style
       id="style1-8">.cls-1{fill:#fff;}</style><style
       id="style1-3">.cls-1{fill:#fff;}</style></defs><rect
     style="opacity:0;fill:#ffc107;fill-opacity:1;stroke:none;stroke-width:20.5301;stroke-linecap:round;stroke-linejoin:round;stroke-dasharray:none;stroke-opacity:1;paint-order:stroke fill markers"
     id="rect7"
     width="206.07027"
     height="206.07027"
     x="-52.576584"
     y="-11.936459" /><path
     id="path1-0"
     style="fill:#2196f3;fill-opacity:1;stroke:#000000;stroke-width:30;stroke-linecap:round;stroke-linejoin:round;stroke-dasharray:none;stroke-opacity:1;paint-order:stroke fill markers"
     class="cls-1"
     d="M 50.463438,10.348677 -1.6361717,62.758827 50.463438,114.84868 102.70367,62.598677 Z m -57.0097697,57 L -30.296333,91.098673 -6.5463317,114.84868 17.213438,91.098673 Z m 114.0097717,0 -23.759771,23.749996 23.759771,23.750007 23.75,-23.750007 z m -85.500002,28.49023 -23.7597697,23.759773 23.7597697,23.75 23.74023,-23.75 z m 56.990227,0 -23.749997,23.759773 23.749997,23.75 23.750005,-23.75 z m -28.490227,28.509773 -23.75977,23.75 23.75977,23.75 23.75,-23.74024 z" /><rect
     style="opacity:0;fill:#ffc107;fill-opacity:1;stroke:none;stroke-width:20.5301;stroke-linecap:round;stroke-linejoin:round;stroke-dasharray:none;stroke-opacity:1;paint-order:stroke fill markers"
     id="rect7-2"
     width="206.07027"
     height="206.07027"
     x="291.82626"
     y="54.924404" /><path
     id="path1-3"
     style="fill:#f44336;fill-opacity:1;stroke:#000000;stroke-width:30;stroke-linecap:round;stroke-linejoin:round;stroke-dasharray:none;stroke-opacity:1;paint-order:stroke fill markers"
     class="cls-1"
     d="m 390.8927,77.204653 -25.08008,43.439457 5.81836,3.3496 c -2.66666,4.66667 -5.35193,9.33335 -8.05859,14.00001 h -26.88086 l 13.49023,23.21093 -8.0996,14 -5.82032,-3.34961 -25.08008,43.41017 c 16.66665,-9.65999 33.3632,-19.32668 50.08985,-29 l 29.56055,-51.20118 z m 7.93946,0 0.0605,57.880867 c 9.85333,17.05998 19.70527,34.1228 29.55859,51.18945 v 0.01 l 50.08985,29 -25.08008,-43.43946 -5.81836,3.35937 -8.06055,-14 13.44922,-23.27929 h -26.84961 c -2.68,-4.66 -5.37,-9.3 -8,-14 l 5.81055,-3.36133 c -8.40666,-14.42665 -16.7935,-28.879387 -25.16015,-43.359377 z m -3.97071,72.000007 -19.39062,33.53905 h 38.79101 l -19.39062,-33.53905 z m -29.54883,44.06055 -50.13086,28.93945 h 50.13086 v -6.7207 h 16.11914 c 4.5,7.72666 8.97636,15.47047 13.42969,23.23047 4.48,-7.76666 8.95946,-15.52598 13.43946,-23.2793 h 16.12108 v 6.76953 h 50.16016 l -50.16016,-28.89062 z" /><rect
     style="opacity:0;fill:#ffc107;fill-opacity:1;stroke:none;stroke-width:20.5301;stroke-linecap:round;stroke-linejoin:round;stroke-dasharray:none;stroke-opacity:1;paint-order:stroke fill markers"
     id="rect7-5"
     width="206.07027"
     height="206.07027"
     x="-99.489151"
     y="-286.58731" /><path
     id="path9026-0"
     style="fill:#ffc107;fill-opacity:1;stroke:#000000;stroke-width:30;stroke-linecap:round;stroke-linejoin:round;stroke-dasharray:none;stroke-opacity:1;paint-order:stroke fill markers"
     class="cls-1"
     d="m 32.130273,-269.55226 c 1.96,6.74 6.09914,25.38135 4.86914,39.86133 -1.23,14.47999 -4.86,23.08852 -7.999995,28.47852 -3.14,5.38999 -7.75,9.61164 -13,10.93164 3.48,3.54999 9.14008,9.9086 11.58008,18.80859 a 47.59,47.59 0 0 1 1.42969,17.91993 40.3,40.3 0 0 1 1.33007,10.29102 c 0,10.52999 -4.08078,20.02938 -10.30078,26.10938 v 0.01 a 44,44 0 0 1 -1.1582,10.16991 28.53,28.53 0 0 1 -4.20117,9.419921 c 11.98999,-2.719991 23.561095,-10.158921 34.621085,-22.378901 11.05999,-12.21999 16.39891,-22.03962 19.87891,-31.34961 a 82.82,82.82 0 0 0 4.570309,-37.16994 129.3,129.3 0 0 1 -5.869139,18.89845 77.09,77.09 0 0 1 -11.91016,19.85157 c -5.96999,6.99999 -8.90078,8 -10.55078,8 -1.65,0 -3.48929,-1.22001 -4.27929,-6 a 34.52,34.52 0 0 1 1.43945,-15.64064 22.2,22.2 0 0 1 6.5293,-9.23047 c 1.57999,-1.1 5.07102,-3.5807 10.79101,-0.2207 1.48,-8.05999 1.06023,-15.68978 -0.75976,-27.75977 a 214,214 0 0 0 -10.88086,-40.34007 c -4.38,-11.10999 -11.12891,-22.86016 -16.12891,-28.66016 z m -65.380855,24.6211 a 109.74,109.74 0 0 0 -14.86914,24.18945 100.63,100.63 0 0 0 -6.5,24.63086 c -0.85,7.70999 -1.00179,14.8193 1.6582,23.2793 5.8,-3.55 9.30086,-0.87953 10.88086,0.23046 1.58,1.11001 4.8104,5.10033 6.65039,10.07032 a 28.38,28.38 0 0 1 1.18946,14.7793 c -0.81,4.66 -2.81977,5.7993 -4.25977,5.7793 -1.44,-0.02 -4.44016,-0.71907 -10.41016,-7.78906 a 83,83 0 0 1 -12.208981,-19.79102 89.32,89.32 0 0 1 -5.28125,-18.00001 c -1.81,13.76999 -0.11937,24.50127 4.14063,36.28126 4.259991,11.77999 12.899381,23.41962 19.859371,31.34961 6.95999,7.92999 18.50017,18.08915 34.66016,22.369141 a 41.57,41.57 0 0 1 -3.84961,-9.759761 56.28,56.28 0 0 1 -1.5293,-9.83984 c -6.08999,-6.08 -10.30078,-15.70939 -10.30078,-26.10938 a 39.79,39.79 0 0 1 1.66992,-11.49024 39.91,39.91 0 0 1 0.63086,-12.69922 57.68,57.68 0 0 1 4.47852,-12.76172 c -9.82999,-3.13 -14.73977,-9.21845 -17.50977,-15.89844 -2.77,-6.67999 -3.55945,-17.5411 -3.18945,-26.87109 a 71.12,71.12 0 0 1 4.08984,-21.94922 z m 36.7207,55.99023 c -8.85999,0 -16.54086,10.32908 -20.13086,25.28907 4.54,-7.47 11.89087,-12.29884 20.13086,-12.29884 8.24,0 15.54915,4.83884 20.11914,12.29884 -3.59999,-14.99999 -11.25914,-25.28907 -20.11914,-25.28907 z m 0,20.14844 c -11.35998,0 -20.58984,11.85166 -20.58984,26.43165 0,14.57998 9.22986,26.41993 20.58984,26.41993 11.35999,0 20.59961,-11.83995 20.59961,-26.41993 0,-14.57999 -9.23962,-26.43165 -20.59961,-26.43165 z" /><rect
     style="opacity:0;fill:#ffc107;fill-opacity:1;stroke:none;stroke-width:20.5301;stroke-linecap:round;stroke-linejoin:round;stroke-dasharray:none;stroke-opacity:1;paint-order:stroke fill markers"
     id="rect7-1"
     width="206.07027"
     height="206.07027"
     x="281.15402"
     y="-242.71251" /><path
     id="path1-5-7"
     style="fill:#4caf50;fill-opacity:1;stroke:#000000;stroke-width:30;stroke-linecap:round;stroke-linejoin:round;stroke-dasharray:none;stroke-opacity:1;paint-order:stroke fill markers"
     class="cls-1"
     d="m 369.2849,-221.25745 c -24.96998,10.45999 -43.31055,47.12973 -43.31055,90.67969 h 1.78906 a 44.6,44.6 0 0 1 43.73047,35.708992 c 1.83,-13.999992 6.82946,-24.058602 12.68946,-24.058602 5.85999,0 10.87117,10.05861 12.70117,24.058602 a 44.59,44.59 0 0 1 43.73047,-35.708992 h 1.78906 c 0,-43.54996 -18.35057,-80.2197 -43.31055,-90.67969 6.17,8.16 10.16992,21.26002 10.16992,36 0,24.71998 -11.24009,44.78907 -25.08007,44.78907 -13.83999,0 -25.06836,-20.06909 -25.06836,-44.78907 0,-14.74998 3.99992,-27.85 10.16992,-36 z m 14.89844,113 c -4.2,0 -7.60938,11.240102 -7.60938,25.080082 0,13.83999 3.40938,25.08008 7.60938,25.08008 4.19999,0 7.62109,-11.24009 7.62109,-25.08008 0,-13.83998 -3.4111,-25.080082 -7.62109,-25.080082 z" /></svg>
