<?xml version="1.0" encoding="UTF-8" standalone="no"?>
<!-- Created with Inkscape (http://www.inkscape.org/) -->

<svg
   width="210mm"
   height="297mm"
   viewBox="0 0 210 297"
   version="1.1"
   id="svg1"
   xml:space="preserve"
   inkscape:version="1.3 (0e150ed6c4, 2023-07-21)"
   sodipodi:docname="vet_particles_aeon.svg"
   xmlns:inkscape="http://www.inkscape.org/namespaces/inkscape"
   xmlns:sodipodi="http://sodipodi.sourceforge.net/DTD/sodipodi-0.dtd"
   xmlns:xlink="http://www.w3.org/1999/xlink"
   xmlns="http://www.w3.org/2000/svg"
   xmlns:svg="http://www.w3.org/2000/svg"><sodipodi:namedview
     id="namedview1"
     pagecolor="#ffffff"
     bordercolor="#cccccc"
     borderopacity="1"
     inkscape:showpageshadow="0"
     inkscape:pageopacity="1"
     inkscape:pagecheckerboard="0"
     inkscape:deskcolor="#d1d1d1"
     inkscape:document-units="mm"
     inkscape:zoom="0.045266467"
     inkscape:cx="-5379.2579"
     inkscape:cy="-2021.3639"
     inkscape:window-width="1920"
     inkscape:window-height="1009"
     inkscape:window-x="1912"
     inkscape:window-y="-8"
     inkscape:window-maximized="1"
     inkscape:current-layer="layer1" /><defs
     id="defs1"><linearGradient
       id="linearGradient72"
       inkscape:collect="always"><stop
         style="stop-color:#6baa4a;stop-opacity:0;"
         offset="0.84521466"
         id="stop70" /><stop
         style="stop-color:#6baa4a;stop-opacity:0.1;"
         offset="0.87587452"
         id="stop71" /><stop
         style="stop-color:#6baa4a;stop-opacity:0.44999999;"
         offset="0.99989998"
         id="stop72" /></linearGradient><linearGradient
       id="linearGradient62"
       inkscape:collect="always"><stop
         style="stop-color:#6baa4a;stop-opacity:0;"
         offset="0.75361657"
         id="stop62" /><stop
         style="stop-color:#6baa4a;stop-opacity:0.1;"
         offset="0.7809546"
         id="stop64" /><stop
         style="stop-color:#6baa4a;stop-opacity:0.44999999;"
         offset="1"
         id="stop63" /></linearGradient><linearGradient
       id="linearGradient57"
       inkscape:collect="always"><stop
         style="stop-color:#6baa4a;stop-opacity:0;"
         offset="0.71904349"
         id="stop55" /><stop
         style="stop-color:#6baa4a;stop-opacity:0.1;"
         offset="0.74970341"
         id="stop56" /><stop
         style="stop-color:#6baa4a;stop-opacity:0.44999999;"
         offset="0.99989998"
         id="stop57" /></linearGradient><linearGradient
       id="linearGradient51"
       inkscape:collect="always"><stop
         style="stop-color:#6baa4a;stop-opacity:0;"
         offset="0.64111853"
         id="stop49" /><stop
         style="stop-color:#6baa4a;stop-opacity:0.1;"
         offset="0.66845584"
         id="stop50" /><stop
         style="stop-color:#6baa4a;stop-opacity:0.44999999;"
         offset="0.99989998"
         id="stop51" /></linearGradient><linearGradient
       id="linearGradient27"
       inkscape:collect="always"><stop
         style="stop-color:#6baa4a;stop-opacity:0;"
         offset="0.85638738"
         id="stop28" /><stop
         style="stop-color:#6baa4a;stop-opacity:0.1;"
         offset="0.85638738"
         id="stop27" /><stop
         style="stop-color:#6baa4a;stop-opacity:0.44999999;"
         offset="0.99989998"
         id="stop29" /></linearGradient><radialGradient
       inkscape:collect="always"
       xlink:href="#linearGradient51"
       id="radialGradient28"
       cx="330.51382"
       cy="-849.2392"
       fx="330.51382"
       fy="-849.2392"
       r="219.48007"
       gradientUnits="userSpaceOnUse" /><radialGradient
       inkscape:collect="always"
       xlink:href="#linearGradient57"
       id="radialGradient29"
       gradientUnits="userSpaceOnUse"
       gradientTransform="matrix(0.89163066,0,0,0.89163066,-844.35666,806.82854)"
       cx="330.51382"
       cy="-849.2392"
       fx="330.51382"
       fy="-849.2392"
       r="219.48007" /><radialGradient
       inkscape:collect="always"
       xlink:href="#linearGradient27"
       id="radialGradient29-6"
       gradientUnits="userSpaceOnUse"
       gradientTransform="matrix(0.78095517,0,0,0.78095517,-1710.1635,468.6939)"
       cx="330.51382"
       cy="-849.2392"
       fx="330.51382"
       fy="-849.2392"
       r="219.48007" /><radialGradient
       inkscape:collect="always"
       xlink:href="#linearGradient72"
       id="radialGradient28-5-3"
       cx="330.51382"
       cy="-849.2392"
       fx="330.51382"
       fy="-849.2392"
       r="219.48007"
       gradientUnits="userSpaceOnUse"
       gradientTransform="matrix(0.89163242,0,0,0.89163242,-1598.1551,-315.26788)" /><radialGradient
       inkscape:collect="always"
       xlink:href="#linearGradient62"
       id="radialGradient63"
       cx="-461.75631"
       cy="-607.88176"
       fx="-461.75631"
       fy="-607.88176"
       r="219.48014"
       gradientUnits="userSpaceOnUse" /></defs><g
     inkscape:label="Layer 1"
     inkscape:groupmode="layer"
     id="layer1"><path
       id="path2-5"
       style="fill:url(#radialGradient28);fill-opacity:1;stroke:none;stroke-width:21.0806;stroke-dasharray:none;stroke-opacity:1;paint-order:markers fill stroke"
       d="M 330.51368 -1068.7193 A 219.48007 219.48007 0 0 0 111.03353 -849.23912 A 219.48007 219.48007 0 0 0 163.57968 -706.92843 A 43.134453 43.134453 0 0 1 194.48942 -720.1271 A 43.134453 43.134453 0 0 1 237.62426 -676.99227 A 43.134453 43.134453 0 0 1 231.02724 -654.13113 A 219.48007 219.48007 0 0 0 330.51368 -629.75898 A 219.48007 219.48007 0 0 0 480.50452 -689.08765 A 26.364363 26.364363 0 0 1 472.2704 -708.14747 A 26.364363 26.364363 0 0 1 498.63468 -734.51176 A 26.364363 26.364363 0 0 1 514.2668 -729.2945 A 219.48007 219.48007 0 0 0 549.99382 -849.23912 A 219.48007 219.48007 0 0 0 409.90108 -1053.7884 A 26.364363 26.364363 0 0 1 393.41888 -1047.935 A 26.364363 26.364363 0 0 1 368.70721 -1065.3045 A 219.48007 219.48007 0 0 0 330.51368 -1068.7193 z M 330.51368 -1053.1636 A 14.228677 14.228677 0 0 1 344.74226 -1038.935 A 14.228677 14.228677 0 0 1 330.51368 -1024.7064 A 14.228677 14.228677 0 0 1 316.28509 -1038.935 A 14.228677 14.228677 0 0 1 330.51368 -1053.1636 z M 376.58115 -1023.9571 A 14.228677 14.228677 0 0 1 390.80974 -1009.7285 A 14.228677 14.228677 0 0 1 376.58115 -995.49996 A 14.228677 14.228677 0 0 1 362.35256 -1009.7285 A 14.228677 14.228677 0 0 1 376.58115 -1023.9571 z "
       inkscape:export-filename="aeon_vet_5_v1.png"
       inkscape:export-xdpi="7.4065752"
       inkscape:export-ydpi="7.4065752" /><path
       id="path2-5-4"
       style="fill:url(#radialGradient63);fill-opacity:1;stroke:none;stroke-width:21.0806;stroke-dasharray:none;stroke-opacity:1;paint-order:markers fill stroke"
       d="M -461.75631 -827.3619 A 219.48007 219.48007 0 0 0 -681.23645 -607.88176 A 219.48007 219.48007 0 0 0 -630.55789 -468.06652 C -622.19135 -476.52158 -610.58981 -481.76956 -597.78005 -481.76956 C -572.33637 -481.76956 -551.6454 -461.07858 -551.6454 -435.63491 C -551.6454 -426.71765 -554.19441 -418.38938 -558.59123 -411.3258 A 219.48007 219.48007 0 0 0 -461.75631 -388.40162 A 219.48007 219.48007 0 0 0 -313.9643 -445.63688 C -319.52678 -450.98428 -323.00096 -458.48894 -323.00096 -466.78908 C -323.00096 -482.97096 -309.81719 -496.15473 -293.63531 -496.15473 C -287.18825 -496.15473 -281.22136 -494.0569 -276.37073 -490.5158 A 219.48007 219.48007 0 0 0 -242.27617 -607.88176 A 219.48007 219.48007 0 0 0 -461.75631 -827.3619 z M -362.16291 -756.64012 C -345.98099 -756.64012 -332.79932 -743.45637 -332.79932 -727.27447 C -332.79932 -711.09257 -345.98099 -697.91141 -362.16291 -697.91141 C -378.34481 -697.91141 -391.52804 -711.09257 -391.52804 -727.27447 C -391.52804 -743.45637 -378.34481 -756.64012 -362.16291 -756.64012 z "
       inkscape:export-filename="aeon_vet_4_v1.png"
       inkscape:export-xdpi="7.4065752"
       inkscape:export-ydpi="7.4065752" /><path
       style="fill:#000000;fill-opacity:1;stroke:none;stroke-width:21.0806;stroke-dasharray:none;stroke-opacity:1;paint-order:markers fill stroke"
       d="m -293.96602,-1337.2114 c -12.93929,0 -23.36498,10.4262 -23.36498,23.3654 0,12.9393 10.42569,23.363 23.36498,23.363 12.93929,0 23.36343,-10.4237 23.36343,-23.363 0,-12.9392 -10.42414,-23.3654 -23.36343,-23.3654 z"
       id="path59" /><path
       style="fill:#000000;fill-opacity:1;stroke:none;stroke-width:21.0806;stroke-dasharray:none;stroke-opacity:1;paint-order:markers fill stroke"
       d="m -293.96602,-1343.2116 c 16.18193,0 29.36359,13.1838 29.36359,29.3656 0,16.182 -13.18166,29.3631 -29.36359,29.3631 -16.18192,0 -29.36513,-13.1811 -29.36513,-29.3631 0,-16.1818 13.18321,-29.3656 29.36513,-29.3656 z"
       id="path58" /><path
       style="fill:url(#radialGradient29);fill-opacity:1;stroke:none;stroke-width:18.7961;stroke-dasharray:none;stroke-opacity:1;paint-order:markers fill stroke"
       d="M -549.66051,-146.07429 A 195.69516,195.69516 0 0 0 -741.14908,11.591541 c 7.4246,-5.1077995 16.40851,-8.1059656 26.0842,-8.1059656 25.44377,0 46.13465,20.6908866 46.13465,46.1346516 0,25.443775 -20.69088,46.135169 -46.13465,46.135169 -9.67569,0 -18.6596,-2.998683 -26.0842,-8.106482 a 195.69516,195.69516 0 0 0 191.48857,157.666866 195.69516,195.69516 0 0 0 195.69504,-195.695036 195.69516,195.69516 0 0 0 -81.132,-158.601174 c -5.17982,8.37535 -14.44594,13.973309 -24.98918,13.973309 -16.1819,0 -29.36513,-13.181149 -29.36513,-29.363069 0,-4.03687 0.82147,-7.88707 2.30425,-11.39258 a 195.69516,195.69516 0 0 0 -62.51298,-10.31152 z"
       id="circle29"
       inkscape:export-filename="aeon_vet_3_v1.png"
       inkscape:export-xdpi="7.4065752"
       inkscape:export-ydpi="7.4065752" /><circle
       style="fill:url(#radialGradient29-6);fill-opacity:1;stroke:none;stroke-width:16.463;stroke-dasharray:none;stroke-opacity:1;paint-order:markers fill stroke"
       id="circle29-9"
       cx="-1452.047"
       cy="-194.52382"
       r="171.4041"
       inkscape:export-filename="aeon_vet_1_v1.png"
       inkscape:export-xdpi="7.4065752"
       inkscape:export-ydpi="7.4065752" /><path
       style="color:#000000;fill:#6baa4a;-inkscape-stroke:none;paint-order:markers fill stroke"
       d="m -317.839,-450.19526 c -37.94995,34.65379 -88.45363,55.79349 -143.91783,55.79349 -33.80941,0 -65.76,-7.88288 -94.16531,-21.86326 -0.84333,1.81559 -1.80157,3.56582 -2.86494,5.24464 29.26448,14.45783 62.19128,22.61877 97.03025,22.61877 56.91453,0 108.77769,-21.68943 147.78426,-57.24353 -1.43583,-1.3814 -2.73361,-2.90395 -3.86643,-4.55011 z"
       id="path48" /><path
       id="circle9"
       style="color:#000000;fill:#6baa4a;-inkscape-stroke:none;paint-order:markers fill stroke"
       d="M -461.75683 -827.36294 C -464.69481 -827.36294 -467.607 -827.25573 -470.51702 -827.14124 L -470.12531 -825.11346 C -469.8292 -823.57774 -469.06379 -822.30193 -468.11458 -821.20207 C -465.99736 -821.2641 -463.88912 -821.36278 -461.75683 -821.36278 C -459.63563 -821.36278 -457.53843 -821.26449 -455.43215 -821.2031 C -454.48011 -822.306 -453.7134 -823.58607 -453.41884 -825.12586 L -453.03281 -827.14228 C -455.93093 -827.25583 -458.83098 -827.36294 -461.75683 -827.36294 z M -438.15052 -826.08033 C -435.93973 -824.06203 -434.02103 -821.78776 -432.4103 -819.3071 C -337.98413 -806.32746 -263.3253 -731.67588 -250.33511 -637.25309 C -247.85348 -635.635 -245.57838 -633.70869 -243.55929 -631.4922 C -254.51581 -733.8152 -335.827 -815.12548 -438.15052 -826.08033 z M -485.36572 -826.07981 C -587.68917 -815.12373 -668.99954 -733.81242 -679.95436 -631.48859 C -677.93619 -633.69915 -675.66211 -635.61768 -673.18165 -637.22829 C -660.20218 -731.65486 -585.55034 -806.31398 -491.12713 -819.304 C -489.50894 -821.78565 -487.5823 -824.06075 -485.36572 -826.07981 z M -242.49786 -616.64195 L -244.52513 -616.25076 C -246.06117 -615.95458 -247.33714 -615.18903 -248.43703 -614.23951 C -248.37501 -612.12246 -248.27632 -610.01439 -248.27632 -607.88228 C -248.27632 -605.75232 -248.32942 -603.63514 -248.39156 -601.52039 C -247.29634 -600.58799 -246.03179 -599.83499 -244.51221 -599.54428 L -242.45859 -599.15103 C -242.34466 -602.04818 -242.27617 -604.9571 -242.27617 -607.88228 C -242.27617 -610.82009 -242.38338 -613.7321 -242.49786 -616.64195 z M -681.01631 -616.60577 C -681.12985 -613.70783 -681.23697 -610.80795 -681.23697 -607.88228 C -681.23697 -604.94464 -681.15667 -602.02602 -681.04215 -599.1164 L -678.98801 -599.51328 C -677.46123 -599.80767 -676.19223 -600.56696 -675.09574 -601.50747 C -675.15803 -603.62869 -675.23734 -605.74591 -675.23734 -607.88228 C -675.23734 -610.0033 -675.13904 -612.10032 -675.07766 -614.20644 C -676.18056 -615.15848 -677.46062 -615.92518 -679.00042 -616.21975 L -681.01631 -616.60577 z M -243.54121 -584.29353 C -245.56493 -582.07364 -247.8473 -580.14844 -250.33666 -578.53265 C -254.60625 -547.58663 -265.47158 -518.75613 -281.51253 -493.52078 C -279.68715 -492.68881 -277.9608 -491.67798 -276.35729 -490.50598 C -258.78551 -518.19492 -247.21603 -550.06275 -243.54121 -584.29353 z M -679.92491 -584.24186 C -675.20646 -540.26995 -657.53638 -500.16595 -630.74548 -467.87015 C -629.35517 -469.29167 -627.87224 -470.62043 -626.30957 -471.85389 C -650.98483 -501.67312 -667.69588 -538.31825 -673.22299 -578.53936 C -675.6759 -580.14409 -677.92487 -582.05148 -679.92491 -584.24186 z " /><path
       id="circle8"
       style="color:#000000;fill:#6baa4a;-inkscape-stroke:none;paint-order:markers fill stroke"
       d="M -496.87355 -800.37078 C -576.75693 -785.87631 -639.74295 -722.894 -654.24275 -643.01243 L -654.00814 -643.01191 C -652.05311 -643.00702 -650.13411 -642.80856 -648.24777 -642.48895 C -634.05341 -719.51497 -573.3961 -780.17461 -496.37125 -794.37218 C -496.61566 -795.92981 -496.7599 -797.51512 -496.80792 -799.11711 L -496.88698 -799.36051 L -496.88647 -800.14909 L -496.8875 -800.15271 C -496.88749 -800.22614 -496.87402 -800.29742 -496.87355 -800.37078 z M -426.62564 -800.3682 L -426.62616 -800.13359 C -426.63105 -798.17873 -426.82957 -796.25991 -427.14912 -794.37373 C -350.1234 -780.17892 -289.46426 -719.52101 -275.26692 -642.49618 C -273.70925 -642.74065 -272.12366 -642.88534 -270.52147 -642.93337 L -270.27808 -643.01243 L -269.48949 -643.01191 L -269.48536 -643.01295 C -269.41228 -643.01294 -269.34134 -642.99946 -269.26832 -642.99899 C -283.76272 -722.88209 -346.74458 -785.86794 -426.62564 -800.3682 z M -275.26537 -573.27457 C -289.46016 -496.24901 -350.11781 -435.58987 -427.1424 -421.39237 C -426.89794 -419.8347 -426.75325 -418.24911 -426.70522 -416.64692 L -426.62616 -416.40352 L -426.62616 -415.61494 L -426.62512 -415.61081 C -426.62513 -415.5379 -426.63861 -415.46713 -426.63907 -415.39428 C -346.75646 -429.88895 -283.7711 -492.87043 -269.2709 -572.75109 L -269.505 -572.7516 C -271.46002 -572.7565 -273.37903 -572.95496 -275.26537 -573.27457 z M -648.27981 -573.26475 C -649.82698 -573.02346 -651.40082 -572.87835 -652.99167 -572.83067 L -653.23506 -572.7516 L -654.02365 -572.7516 L -654.02726 -572.75057 C -654.11444 -572.75058 -654.19907 -572.76645 -654.28616 -572.76711 C -647.92409 -537.76592 -632.2415 -506.0092 -609.91419 -480.13969 C -607.72231 -480.73776 -605.46702 -481.17684 -603.15905 -481.44607 C -625.8733 -506.83347 -641.8426 -538.37326 -648.27981 -573.26475 z M -551.96166 -440.95655 C -551.76005 -439.20915 -551.6454 -437.43556 -551.6454 -435.63491 C -551.6454 -435.12158 -551.66736 -434.61358 -551.68416 -434.10425 C -534.71304 -425.30007 -516.29729 -418.90334 -496.88698 -415.36534 L -496.88647 -415.63044 C -496.88159 -417.57838 -496.6855 -419.49086 -496.36815 -421.37066 C -516.1419 -425.01604 -534.85012 -431.69384 -551.96166 -440.95655 z " /><path
       id="path1"
       style="opacity:1;fill:#6baa4a;fill-opacity:1;stroke:#000000;stroke-width:4;stroke-dasharray:none;stroke-opacity:1;paint-order:markers fill stroke"
       d="m -451.39689,-441.75698 v 17.64693 c 3e-5,5.72145 -4.63812,10.35961 -10.35957,10.35958 -5.72145,3e-5 -10.35961,-4.63813 -10.35958,-10.35958 v -17.5844 c -10.70167,4.23926 -17.74065,14.57091 -17.76946,26.0816 1.4e-4,9.57009 4.86592,18.48357 12.91549,23.65955 1.39727,-7.30388 7.77724,-12.59141 15.21355,-12.60853 7.44049,9.7e-4 13.83427,5.2804 15.24299,12.58631 8.0317,-5.17863 12.88479,-14.08083 12.88604,-23.63733 -0.003,-11.53352 -7.04662,-21.89645 -17.76946,-26.14413 z"
       sodipodi:nodetypes="ccccccccccc"
       inkscape:transform-center-x="-2.1533203e-06"
       inkscape:transform-center-y="191.02677" /><path
       id="circle7"
       style="color:#000000;fill:#6baa4a;-inkscape-stroke:none;paint-order:markers fill stroke"
       d="M -461.75683 -779.2868 C -462.88384 -779.2868 -463.9955 -779.22322 -465.11735 -779.20153 L -465.11735 -774.00909 L -465.11683 -773.2019 C -463.99529 -773.22431 -462.88375 -773.28665 -461.75683 -773.28665 C -460.62765 -773.28665 -459.52104 -773.19712 -458.39734 -773.17451 L -458.39734 -779.17001 C -459.52154 -779.19179 -460.62744 -779.2868 -461.75683 -779.2868 z M -488.30766 -777.22956 C -561.70642 -765.80254 -619.72043 -707.76977 -631.11652 -634.36076 C -629.146 -632.6524 -627.38553 -630.71617 -625.82588 -628.59006 C -616.49077 -703.35294 -557.34092 -762.54099 -482.59638 -771.93479 C -484.704 -773.49236 -486.61405 -775.26709 -488.30766 -777.22956 z M -435.3202 -777.18822 C -437.0162 -775.23966 -438.93773 -773.49957 -441.04336 -771.95443 C -418.73354 -769.15595 -397.80391 -761.94462 -379.16859 -751.18567 C -377.27604 -752.53618 -375.21879 -753.66719 -373.03149 -754.54309 C -391.74452 -765.8924 -412.82173 -773.69747 -435.3202 -777.18822 z M -333.3936 -721.38646 C -333.8644 -719.08585 -334.60984 -716.88438 -335.58623 -714.81218 C -315.3681 -690.97688 -301.79409 -661.34225 -297.68622 -628.74353 C -296.14041 -630.83187 -294.38239 -632.72692 -292.43848 -634.4083 C -297.59208 -667.47157 -312.18062 -697.41677 -333.3936 -721.38646 z M -295.62898 -611.24279 L -296.42842 -611.24228 C -296.406 -610.12149 -296.35245 -609.00848 -296.35245 -607.88228 C -296.35245 -606.75552 -296.4148 -605.64416 -296.4372 -604.52279 L -290.43757 -604.52279 C -290.4159 -605.64436 -290.3523 -606.75554 -290.3523 -607.88228 C -290.3523 -609.00878 -290.40915 -610.12148 -290.43085 -611.24279 L -295.62898 -611.24279 z M -627.07594 -611.24124 L -633.07557 -611.24073 C -633.09722 -610.11956 -633.16084 -609.0086 -633.16084 -607.88228 C -633.16084 -606.75502 -633.09726 -605.64333 -633.07557 -604.52124 L -627.88364 -604.52072 L -627.07594 -604.52124 C -627.09835 -605.64312 -627.16069 -606.755 -627.16069 -607.88228 C -627.16069 -609.00886 -627.09833 -610.12005 -627.07594 -611.24124 z M -297.68726 -587.17346 C -307.02287 -512.41086 -366.17326 -453.22277 -440.91779 -443.82924 C -438.81019 -442.2719 -436.89966 -440.49771 -435.20599 -438.53551 C -361.80749 -449.9624 -303.79316 -507.99429 -292.39662 -581.40275 C -294.36714 -583.11111 -296.1276 -585.04734 -297.68726 -587.17346 z M -625.80935 -587.04324 C -627.36683 -584.93544 -629.14118 -583.02471 -631.1036 -581.33092 C -619.67644 -507.93223 -561.64381 -449.91846 -488.2348 -438.52259 C -486.52656 -440.49288 -484.59053 -442.2532 -482.46461 -443.8127 C -557.22763 -453.14791 -616.41584 -512.29836 -625.80935 -587.04324 z M -465.1158 -442.56265 L -465.11528 -436.56353 C -463.99412 -436.54188 -462.88315 -436.47827 -461.75683 -436.47827 C -460.62964 -436.47827 -459.51781 -436.54185 -458.39579 -436.56353 L -458.39528 -441.75443 L -458.39579 -442.56265 C -459.51767 -442.54023 -460.62955 -442.4779 -461.75683 -442.4779 C -462.88341 -442.4779 -463.9946 -442.54026 -465.1158 -442.56265 z " /><path
       id="circle9-1"
       style="color:#000000;fill:#6baa4a;-inkscape-stroke:none;paint-order:markers fill stroke"
       d="M 330.51368 -1068.7203 C 290.82039 -1068.7203 253.6167 -1058.1195 221.48364 -1039.6761 C 224.40369 -1039.339 227.24209 -1038.6211 229.95547 -1037.5832 C 259.92015 -1053.6095 294.14479 -1062.7201 330.51368 -1062.7201 C 344.82527 -1062.7201 358.79805 -1061.2868 372.31939 -1058.6036 A 26.364363 26.364363 0 0 1 368.69429 -1065.3396 C 356.28703 -1067.519 343.54375 -1068.7203 330.51368 -1068.7203 z M 409.9512 -1053.8256 A 26.364363 26.364363 0 0 1 403.3914 -1049.9519 C 412.93018 -1046.4895 422.11361 -1042.3031 430.96284 -1037.5754 C 433.7127 -1038.6292 436.59916 -1039.3298 439.55973 -1039.6668 C 430.10839 -1045.0902 420.21766 -1049.8341 409.9512 -1053.8256 z M 208.68029 -1031.7815 C 203.82698 -1028.535 199.13713 -1025.0703 194.56745 -1021.4575 L 196.0578 -1020.0644 C 197.18715 -1019.008 198.53918 -1018.4299 199.93612 -1018.0934 C 203.30303 -1020.7005 206.72888 -1023.2333 210.25177 -1025.6392 C 210.35357 -1027.0592 210.21763 -1028.5087 209.56654 -1029.8942 L 208.68029 -1031.7815 z M 452.28454 -1031.7313 L 451.42878 -1029.902 C 450.75872 -1028.4707 450.62943 -1026.9723 450.76008 -1025.5105 C 454.25452 -1023.1228 457.71878 -1020.6983 461.05971 -1018.1125 C 462.46262 -1018.4493 463.82005 -1019.0309 464.95198 -1020.0928 L 466.43716 -1021.4855 C 461.87018 -1025.0925 457.13443 -1028.4897 452.28454 -1031.7313 z M 183.15471 -1011.8643 C 138.86262 -971.70318 111.03302 -913.71168 111.03302 -849.23964 C 111.03302 -833.82387 112.67945 -818.8004 115.71077 -804.28476 C 116.93883 -806.98776 118.49417 -809.49556 120.33736 -811.77784 C 118.18109 -823.94093 117.03317 -836.45379 117.03317 -849.23964 C 117.03317 -909.66726 142.15626 -964.17402 182.48188 -1003.0044 C 182.3311 -1005.9604 182.55091 -1008.9304 183.15471 -1011.8643 z M 477.89383 -1011.7382 C 478.48241 -1008.8066 478.68728 -1005.8408 478.52015 -1002.8902 C 518.82284 -964.06601 543.99419 -909.64622 543.99419 -849.23964 C 543.99419 -836.48814 542.74704 -824.04567 540.60059 -811.91375 C 542.46581 -809.6149 544.03902 -807.08635 545.28145 -804.36072 C 548.30685 -818.85737 549.99434 -833.8449 549.99434 -849.23964 C 549.99434 -913.68046 522.15696 -971.59601 477.89383 -1011.7382 z M 539.69936 -790.0696 C 538.1627 -790.26064 536.72708 -789.9333 535.39781 -789.38282 C 534.20594 -785.30367 532.85183 -781.29918 531.42699 -777.32516 C 532.18217 -776.06978 533.16764 -774.93726 534.54877 -774.17703 L 536.33315 -773.19467 C 538.34913 -778.6349 540.11949 -784.18719 541.70647 -789.82052 L 539.69936 -790.0696 z M 121.32593 -790.03653 L 119.2227 -789.77247 C 120.81223 -784.12783 122.62877 -778.57905 124.64924 -773.12852 L 126.50029 -774.15171 C 127.84416 -774.89396 128.80608 -775.99153 129.55695 -777.20476 C 128.12093 -781.20541 126.7998 -785.25941 125.60009 -789.36681 C 124.27705 -789.90715 122.85089 -790.22834 121.32593 -790.03653 z M 130.33933 -759.33401 C 138.93554 -740.26228 150.13204 -722.61134 163.54557 -706.89432 A 43.134453 43.134453 0 0 1 167.97373 -710.88736 C 156.34066 -724.54215 146.41345 -739.68906 138.47785 -755.98435 C 135.64836 -756.75152 132.91923 -757.86961 130.33933 -759.33401 z M 530.61774 -759.29526 C 528.03427 -757.84075 525.30251 -756.73508 522.47095 -755.98125 C 518.48498 -747.79892 514.06669 -739.86499 509.10949 -732.30724 A 26.364363 26.364363 0 0 1 514.26628 -729.29502 C 520.48329 -738.79737 525.90658 -748.85115 530.61774 -759.29526 z M 476.63551 -693.65378 C 445.17439 -664.09591 404.75704 -643.98356 359.87416 -637.80086 C 358.26332 -635.3334 356.34713 -633.07112 354.14427 -631.06122 C 402.77389 -636.28338 446.65088 -657.38672 480.4947 -689.09747 A 26.364363 26.364363 0 0 1 476.63551 -693.65378 z M 233.67979 -658.98872 A 43.134453 43.134453 0 0 1 230.81589 -653.74408 C 254.07224 -641.85514 279.72621 -634.02537 306.84897 -631.09636 C 304.65228 -633.11113 302.74494 -635.37854 301.14389 -637.85099 C 277.16095 -641.1688 254.4348 -648.40732 233.67979 -658.98872 z M 324.21535 -635.94826 C 323.24949 -634.84012 322.47347 -633.54893 322.1762 -631.99502 L 321.79845 -630.02201 C 324.69695 -629.90772 327.58702 -629.75898 330.51368 -629.75898 C 333.45168 -629.75898 336.36609 -629.8572 339.27593 -629.97188 L 338.88267 -632.00742 C 338.58704 -633.54068 337.82341 -634.81471 336.8766 -635.91364 C 334.75815 -635.85142 332.64732 -635.75913 330.51368 -635.75913 C 328.39855 -635.75913 326.31543 -635.88685 324.21535 -635.94826 z " /><path
       id="circle8-7"
       style="color:#000000;fill:#6baa4a;-inkscape-stroke:none;paint-order:markers fill stroke"
       d="M 317.42352 -1044.4505 C 291.89938 -1042.7612 267.71009 -1036.1748 245.78551 -1025.6258 L 245.93228 -1025.4227 C 247.07838 -1023.8369 248.04632 -1022.1663 248.89695 -1020.4509 C 269.58316 -1030.3181 292.32554 -1036.5773 316.32694 -1038.3521 A 14.228677 14.228677 0 0 1 316.28509 -1038.935 A 14.228677 14.228677 0 0 1 317.42352 -1044.4505 z M 343.60383 -1044.4505 A 14.228677 14.228677 0 0 1 344.74226 -1038.935 A 14.228677 14.228677 0 0 1 344.7278 -1038.3501 C 368.71584 -1036.5727 391.44553 -1030.3156 412.12161 -1020.4545 C 412.84044 -1021.8615 413.65758 -1023.2316 414.56229 -1024.5587 L 414.64136 -1024.802 L 415.10541 -1025.4397 L 415.10593 -1025.4397 C 415.15189 -1025.503 415.20738 -1025.5567 415.25372 -1025.6196 C 393.32595 -1036.172 369.13266 -1042.7609 343.60383 -1044.4505 z M 188.98433 -984.28824 C 155.44333 -949.1713 134.81813 -901.61857 134.81813 -849.23964 C 134.81813 -840.39489 135.43601 -831.69666 136.57513 -823.16319 L 136.81594 -823.24071 C 138.67892 -823.84088 140.56766 -824.24545 142.46262 -824.52435 C 141.40822 -832.61745 140.81828 -840.85724 140.81828 -849.23964 C 140.81828 -899.84106 160.63549 -945.76564 192.90709 -979.75518 C 191.78835 -980.8759 190.73556 -982.07992 189.75069 -983.35341 L 189.54347 -983.50379 L 189.08045 -984.142 L 189.07735 -984.142 C 189.04312 -984.18912 189.0183 -984.24098 188.98433 -984.28824 z M 472.05077 -984.28049 L 471.93708 -984.12494 C 470.7804 -982.54125 469.48677 -981.10196 468.11458 -979.76035 C 500.38939 -945.77025 520.20907 -899.84389 520.20907 -849.23964 C 520.20907 -840.85941 519.60888 -832.62452 518.55646 -824.5321 C 520.11896 -824.28321 521.67681 -823.9289 523.22078 -823.4779 L 523.47657 -823.4779 L 524.2264 -823.23399 L 524.23053 -823.23399 C 524.30748 -823.20897 524.37759 -823.17063 524.45429 -823.1451 C 525.5942 -831.68443 526.20922 -840.38922 526.20922 -849.23964 C 526.20922 -901.61462 505.58731 -949.16431 472.05077 -984.28049 z M 163.8577 -758.69374 C 162.44885 -757.97794 160.98175 -757.3501 159.46934 -756.80807 L 159.26211 -756.65769 L 158.51229 -756.41429 L 158.50919 -756.41429 C 158.44165 -756.39236 158.37217 -756.38309 158.30455 -756.36158 C 165.62249 -742.8375 174.45404 -730.25112 184.62491 -718.87757 A 43.134453 43.134453 0 0 1 191.75109 -719.93125 C 180.89813 -731.57315 171.5328 -744.60655 163.8577 -758.69374 z M 497.23942 -758.66222 C 470.38185 -709.31057 422.2361 -673.27616 365.1281 -662.74973 C 365.37261 -661.19177 365.51725 -659.60613 365.56528 -658.00376 L 365.64435 -657.76088 L 365.64383 -656.9723 L 365.64486 -656.96817 C 365.64486 -656.89787 365.63186 -656.82964 365.63143 -656.7594 C 407.76901 -664.41701 445.22262 -685.53293 473.33183 -715.54702 A 26.364363 26.364363 0 0 1 486.99715 -731.75482 C 492.83613 -739.51813 498.09077 -747.74245 502.74141 -756.3404 L 502.50008 -756.41895 C 500.66375 -757.02069 498.91703 -757.78861 497.23942 -758.66222 z M 237.00517 -684.19855 A 43.134453 43.134453 0 0 1 237.62426 -676.99227 A 43.134453 43.134453 0 0 1 237.62322 -676.97935 C 255.39822 -667.37023 274.84037 -660.47365 295.383 -656.74234 L 295.38352 -656.98781 C 295.38844 -658.95173 295.58972 -660.87898 295.91217 -662.7735 C 274.85893 -666.66861 255.00779 -673.98013 237.00517 -684.19855 z " /><path
       id="path1-4"
       style="fill:#6baa4a;fill-opacity:1;stroke:#000000;stroke-width:4;stroke-dasharray:none;stroke-opacity:1;paint-order:markers fill stroke"
       d="m 340.87341,-683.11424 v 17.64694 c 3e-5,5.72145 -4.63812,10.35961 -10.35957,10.35958 -5.72145,3e-5 -10.35961,-4.63813 -10.35958,-10.35958 v -17.58441 c -10.70167,4.23926 -17.74065,14.57092 -17.76946,26.08161 1.4e-4,9.57008 4.86592,18.48356 12.91549,23.65954 1.39727,-7.30388 7.77724,-12.59141 15.21355,-12.60853 7.44049,9.7e-4 13.83427,5.2804 15.24299,12.58631 8.0317,-5.17863 12.88479,-14.08083 12.88604,-23.63732 -0.003,-11.53352 -7.04662,-21.89646 -17.76946,-26.14414 z"
       sodipodi:nodetypes="ccccccccccc"
       inkscape:transform-center-x="-2.1533203e-06"
       inkscape:transform-center-y="191.02677" /><path
       id="path3-4"
       style="fill:#6baa4a;fill-opacity:1;stroke:#000000;stroke-width:4;stroke-dasharray:none;stroke-opacity:1;paint-order:markers fill stroke"
       d="m 175.72092,-788.05116 -16.78324,5.4532 c -5.44141,1.768 -11.28583,-1.2099 -13.05383,-6.6513 -1.76805,-5.4414 1.20983,-11.2858 6.65126,-13.0538 l 16.72377,-5.4339 c -7.33877,-8.8679 -19.33993,-12.3697 -30.29615,-8.8401 -9.10164,2.9574 -16.07526,10.3395 -18.51045,19.5946 7.37818,-0.9282 14.37844,3.5056 16.69267,10.5727 2.29831,7.0766 -0.74694,14.7889 -7.25995,18.3863 7.4071,6.0383 17.37328,7.9029 26.46243,4.951 10.9681,-3.5669 18.64725,-13.4681 19.37349,-24.9787 z"
       sodipodi:nodetypes="ccccccccccc"
       inkscape:transform-center-x="182.42723"
       inkscape:transform-center-y="59.424183" /><path
       id="path4-5"
       style="fill:#6baa4a;fill-opacity:1;stroke:#000000;stroke-width:4;stroke-dasharray:none;stroke-opacity:1;paint-order:markers fill stroke"
       d="m 224.48698,-977.54786 -10.37262,-14.2767 c -3.36301,-4.6287 -2.33691,-11.10734 2.29186,-14.47034 4.62874,-3.363 11.10733,-2.3369 14.47029,2.2919 l 10.33586,14.22614 c 6.16606,-9.7199 5.78791,-22.21584 -0.9546,-31.54514 -5.62526,-7.7423 -14.80097,-12.0934 -24.35557,-11.5494 3.16269,6.7302 1.10912,14.758 -4.89692,19.1428 -6.02006,4.3726 -14.29591,3.8596 -19.72989,-1.2229 -3.45385,8.9105 -2.14751,18.96514 3.46864,26.69724 6.78167,9.329 18.57126,13.5727 29.74295,10.7064 z"
       sodipodi:nodetypes="ccccccccccc"
       inkscape:transform-center-x="113.03259"
       inkscape:transform-center-y="-155.55126" /><path
       id="path5-1"
       style="fill:#6baa4a;fill-opacity:1;stroke:#000000;stroke-width:4;stroke-dasharray:none;stroke-opacity:1;paint-order:markers fill stroke"
       d="m 419.77854,-989.72626 10.37262,-14.27674 c 3.36295,-4.6288 9.84153,-5.6549 14.47027,-2.2919 4.62877,3.363 5.65488,9.84164 2.29187,14.47034 l -10.33586,14.2261 c 11.1496,2.8607 22.91706,-1.3604 29.70618,-10.6558 5.62503,-7.7425 6.92775,-17.81374 3.45788,-26.73254 -5.42353,5.0876 -13.69297,5.6153 -19.71913,1.2582 -6.01891,-4.3742 -8.08842,-12.4035 -4.9338,-19.1422 -9.5417,-0.5313 -18.70051,3.8182 -24.31869,11.5488 -6.7768,9.3326 -7.16958,21.85654 -0.99134,31.59574 z"
       sodipodi:nodetypes="ccccccccccc"
       inkscape:transform-center-x="-113.01515"
       inkscape:transform-center-y="-155.57524" /><path
       id="path6-0"
       style="fill:#6baa4a;fill-opacity:1;stroke:#000000;stroke-width:4;stroke-dasharray:none;stroke-opacity:1;paint-order:markers fill stroke"
       d="m 491.70931,-807.75626 16.78325,5.4532 c 5.44143,1.768 8.41931,7.6124 6.65126,13.0538 -1.76801,5.4414 -7.61242,8.4193 -13.05384,6.6513 l -16.72377,-5.4339 c 0.72477,11.4879 8.37561,21.375 19.31403,24.9594 9.10172,2.9572 19.08255,1.084 26.49266,-4.9722 -6.51462,-3.5859 -9.57184,-11.2875 -7.29018,-18.3652 2.30017,-7.076 9.297,-11.5254 16.68064,-10.6075 -2.44324,-9.2389 -9.41004,-16.6054 -18.49841,-19.5597 -10.96997,-3.5612 -23.00231,-0.065 -30.35564,8.8208 z"
       sodipodi:nodetypes="ccccccccccc"
       inkscape:transform-center-x="-182.45095"
       inkscape:transform-center-y="59.415" /><path
       id="circle7-1"
       style="color:#000000;fill:#6baa4a;-inkscape-stroke:none;paint-order:markers fill stroke"
       d="M 330.51368 -1020.6436 C 302.36626 -1020.6436 275.82429 -1013.8071 252.38666 -1001.7719 C 252.16324 -999.21818 251.64238 -996.69935 250.85911 -994.22924 C 274.48605 -1007.2315 301.62696 -1014.644 330.51368 -1014.644 C 341.45415 -1014.644 352.13579 -1013.555 362.48123 -1011.5305 A 14.228677 14.228677 0 0 1 364.52039 -1017.2542 C 353.52695 -1019.4693 342.15748 -1020.6436 330.51368 -1020.6436 z M 390.8087 -1009.697 A 14.228677 14.228677 0 0 1 389.50439 -1003.7816 C 396.62776 -1001.0626 403.48089 -997.81066 410.09228 -994.17549 C 409.29842 -996.67864 408.79324 -999.24173 408.57454 -1001.8298 C 402.83243 -1004.7741 396.90313 -1007.4042 390.8087 -1009.697 z M 232.52844 -989.81969 C 230.69077 -988.53606 228.86789 -987.23375 227.08381 -985.88091 L 230.14771 -981.66359 L 230.59161 -981.0533 C 232.37494 -982.40698 234.19573 -983.71172 236.03469 -984.99362 L 232.52844 -989.81969 z M 428.44775 -989.75096 L 425.44225 -985.61477 L 424.9446 -984.92903 C 426.78386 -983.64756 428.60301 -982.34036 430.38665 -980.98715 L 433.90426 -985.82923 C 432.12017 -987.18157 430.2854 -988.46779 428.44775 -989.75096 z M 451.30682 -970.64153 C 448.79753 -970.07245 446.22778 -969.81047 443.62615 -969.80437 C 475.78096 -939.64496 495.91805 -896.83277 495.91805 -849.23964 C 495.91805 -838.68774 494.88946 -828.38215 493.00298 -818.38054 C 495.1249 -819.89338 497.38976 -821.15527 499.76588 -822.15498 C 501.16856 -830.97985 501.9182 -840.02148 501.9182 -849.23964 C 501.9182 -896.71125 482.51555 -939.60277 451.30682 -970.64153 z M 209.53501 -970.62654 C 178.39225 -939.58808 159.10915 -896.65762 159.10915 -849.23964 C 159.10915 -840.00354 159.86274 -830.94499 161.27078 -822.10382 C 163.6488 -821.09779 165.91533 -819.82983 168.03729 -818.30974 C 166.14213 -828.33338 165.1093 -838.66291 165.1093 -849.23964 C 165.1093 -896.75812 185.15235 -939.54981 217.21361 -969.71239 C 214.61175 -969.73436 212.0415 -970.0417 209.53501 -970.62654 z M 488.84975 -801.32576 C 488.20039 -799.17549 487.49296 -797.05185 486.75944 -794.93959 L 492.45108 -793.09009 C 493.18417 -795.20299 493.8958 -797.32524 494.54759 -799.47472 L 489.54893 -801.09891 L 488.84975 -801.32576 z M 172.17812 -801.32473 L 166.47976 -799.47316 C 167.13152 -797.32385 167.84322 -795.20179 168.57627 -793.08906 L 173.55581 -794.70653 L 174.26792 -794.93856 C 173.5344 -797.05077 172.82748 -799.17451 172.17812 -801.32473 z M 480.17793 -778.76332 C 456.54864 -728.64579 408.50298 -692.36897 351.35271 -685.1866 C 353.46042 -683.62913 355.37082 -681.85474 357.06451 -679.89235 C 412.36704 -688.50207 458.89997 -723.5887 483.37721 -771.75806 C 482.05589 -773.95688 480.99647 -776.30276 480.17793 -778.76332 z M 180.90214 -778.64705 C 180.07995 -776.20369 179.00239 -773.87609 177.68373 -771.69295 C 202.18055 -723.5362 248.72539 -688.46592 304.03467 -679.87943 C 305.74317 -681.85005 307.67957 -683.61036 309.8059 -685.17006 C 252.64177 -692.3078 204.56885 -728.55077 180.90214 -778.64705 z M 327.15471 -683.92001 L 327.15471 -677.92038 C 328.27604 -677.89872 329.38718 -677.83511 330.51368 -677.83511 C 331.64086 -677.83511 332.75269 -677.89869 333.87471 -677.92038 L 333.87471 -683.11179 L 333.87419 -683.92001 C 332.75248 -683.8976 331.64078 -683.83526 330.51368 -683.83526 C 329.3871 -683.83526 328.2759 -683.89762 327.15471 -683.92001 z " /><path
       id="path18"
       style="opacity:1;fill:#6baa4a;fill-opacity:1;stroke:#000000;stroke-width:4;stroke-dasharray:none;stroke-opacity:1;paint-order:markers fill stroke"
       d="m -627.8814,-597.52233 h -17.64693 c -5.72145,3e-5 -10.35961,-4.63812 -10.35958,-10.35957 -3e-5,-5.72145 4.63813,-10.35961 10.35958,-10.35958 h 17.5844 c -4.23926,-10.70167 -14.57091,-17.74065 -26.0816,-17.76946 -9.57009,1.4e-4 -18.48357,4.86592 -23.65955,12.91549 7.30388,1.39727 12.59141,7.77724 12.60853,15.21355 -9.7e-4,7.44049 -5.2804,13.83427 -12.58631,15.24299 5.17863,8.0317 14.08083,12.88479 23.63733,12.88604 11.53352,-0.003 21.89645,-7.04662 26.14413,-17.76946 z"
       sodipodi:nodetypes="ccccccccccc"
       inkscape:transform-center-x="191.02677"
       inkscape:transform-center-y="5.0000001e-06" /><path
       id="path20"
       style="opacity:1;fill:#6baa4a;fill-opacity:1;stroke:#000000;stroke-width:4;stroke-dasharray:none;stroke-opacity:1;paint-order:markers fill stroke"
       d="m -472.11605,-774.00684 v -17.64693 c -3e-5,-5.72145 4.63812,-10.35961 10.35957,-10.35958 5.72145,-3e-5 10.35961,4.63813 10.35958,10.35958 v 17.5844 c 10.70167,-4.23926 17.74065,-14.57091 17.76946,-26.0816 -1.4e-4,-9.57009 -4.86592,-18.48357 -12.91549,-23.65955 -1.39727,7.30388 -7.77724,12.59141 -15.21355,12.60853 -7.44049,-9.7e-4 -13.83427,-5.2804 -15.24299,-12.58631 -8.0317,5.17863 -12.88479,14.08083 -12.88604,23.63733 0.003,11.53352 7.04662,21.89645 17.76946,26.14413 z"
       sodipodi:nodetypes="ccccccccccc"
       inkscape:transform-center-x="5e-06"
       inkscape:transform-center-y="-191.02677" /><path
       id="path22"
       style="opacity:1;fill:#6baa4a;fill-opacity:1;stroke:#000000;stroke-width:4;stroke-dasharray:none;stroke-opacity:1;paint-order:markers fill stroke"
       d="m -295.63154,-618.24149 h 17.64693 c 5.72145,-3e-5 10.35961,4.63812 10.35958,10.35957 3e-5,5.72145 -4.63813,10.35961 -10.35958,10.35958 h -17.5844 c 4.23926,10.70167 14.57091,17.74065 26.0816,17.76946 9.57009,-1.4e-4 18.48357,-4.86592 23.65955,-12.91549 -7.30388,-1.39727 -12.59141,-7.77724 -12.60853,-15.21355 9.7e-4,-7.44049 5.2804,-13.83427 12.58631,-15.24299 -5.17863,-8.0317 -14.08083,-12.88479 -23.63733,-12.88604 -11.53352,0.003 -21.89645,7.04662 -26.14413,17.76946 z"
       sodipodi:nodetypes="ccccccccccc"
       inkscape:transform-center-x="-191.02677"
       inkscape:transform-center-y="-5e-06" /><path
       style="fill:url(#radialGradient28-5-3);fill-opacity:1;stroke:none;stroke-width:18.7961;stroke-dasharray:none;stroke-opacity:1;paint-order:markers fill stroke"
       d="m -1303.4584,-1268.1727 a 195.69554,195.69554 0 0 0 -195.6956,195.6955 195.69554,195.69554 0 0 0 21.7207,88.6866 c 2.4298,-0.65391 4.981,-1.00872 7.6135,-1.00872 16.1818,0 29.363,13.18315 29.363,29.36513 0,6.21757 -1.9518,11.98802 -5.2663,16.74213 a 195.69554,195.69554 0 0 0 142.2647,61.91044 195.69554,195.69554 0 0 0 195.6955,-195.69558 195.69554,195.69554 0 0 0 -195.6955,-195.6955 z"
       id="path2-5-4-9"
       inkscape:export-filename="aeon_vet_2_v1.png"
       inkscape:export-xdpi="7.4065752"
       inkscape:export-ydpi="7.4065752" /><path
       id="circle8-90"
       style="color:#000000;fill:#6baa4a;-inkscape-stroke:none;paint-order:markers fill stroke"
       d="M -1338.5777 -1264.9652 C -1429.864 -1248.4005 -1499.154 -1168.5263 -1499.154 -1072.4777 C -1499.154 -1040.5021 -1491.4275 -1010.3415 -1477.8168 -983.68156 C -1475.8355 -984.24399 -1473.7714 -984.60489 -1471.6456 -984.73628 C -1485.3584 -1010.978 -1493.1538 -1040.8062 -1493.1538 -1072.4777 C -1493.1538 -1165.4489 -1426.3247 -1242.6996 -1338.0749 -1258.9671 C -1338.3197 -1260.5259 -1338.464 -1262.1128 -1338.5121 -1263.7161 L -1338.5906 -1263.9595 L -1338.5906 -1264.7481 L -1338.5917 -1264.7481 C -1338.5917 -1264.8212 -1338.5782 -1264.8921 -1338.5777 -1264.9652 z M -1268.3303 -1264.9636 L -1268.3303 -1264.7285 C -1268.3352 -1262.7737 -1268.5332 -1260.8548 -1268.8528 -1258.9686 C -1180.5977 -1242.7054 -1113.763 -1165.4527 -1113.763 -1072.4777 C -1113.763 -979.50642 -1180.5921 -902.25535 -1268.8419 -885.98778 C -1268.5974 -884.42982 -1268.4528 -882.84417 -1268.4047 -881.24182 L -1268.3257 -880.99842 L -1268.3262 -880.20984 L -1268.3252 -880.20622 C -1268.3252 -880.13331 -1268.3387 -880.06255 -1268.3391 -879.9897 C -1177.0529 -896.55443 -1107.7634 -976.42915 -1107.7634 -1072.4777 C -1107.7634 -1168.5232 -1177.0484 -1248.3955 -1268.3303 -1264.9636 z M -1442.854 -943.83283 C -1443.6848 -941.91094 -1444.7178 -940.09713 -1445.9216 -938.41249 C -1417.8544 -908.59984 -1380.5432 -887.62806 -1338.5865 -880.00003 L -1338.5865 -880.22534 C -1338.5816 -882.1842 -1338.3818 -884.1067 -1338.061 -885.99657 C -1379.1665 -893.57827 -1415.6342 -914.35132 -1442.854 -943.83283 z " /><path
       id="path1-9"
       style="fill:#6baa4a;fill-opacity:1;stroke:#000000;stroke-width:4;stroke-dasharray:none;stroke-opacity:1;paint-order:markers fill stroke"
       d="m -1293.0987,-906.35214 v 17.64693 c 0,5.72145 -4.6382,10.35961 -10.3596,10.35958 -5.7215,3e-5 -10.3596,-4.63813 -10.3596,-10.35958 v -17.5844 c -10.7017,4.23926 -17.7406,14.57091 -17.7694,26.0816 10e-5,9.57009 4.8659,18.48357 12.9154,23.65955 1.3973,-7.30388 7.7773,-12.59141 15.2136,-12.60853 7.4405,9.7e-4 13.8343,5.2804 15.243,12.58631 8.0317,-5.17863 12.8848,-14.08083 12.886,-23.63733 -0,-11.53352 -7.0466,-21.89645 -17.7694,-26.14413 z"
       sodipodi:nodetypes="ccccccccccc"
       inkscape:transform-center-x="-2.1533203e-06"
       inkscape:transform-center-y="191.02677" /><path
       id="circle7-4"
       style="color:#000000;fill:#6baa4a;-inkscape-stroke:none;paint-order:markers fill stroke"
       d="M -1303.4584 -1243.8817 C -1304.5861 -1243.8817 -1305.6985 -1243.8181 -1306.821 -1243.7964 L -1306.8215 -1238.6045 L -1306.8205 -1237.7968 C -1305.6983 -1237.8192 -1304.586 -1237.8815 -1303.4584 -1237.8815 C -1302.3324 -1237.8815 -1301.2217 -1237.8192 -1300.101 -1237.7968 L -1300.1015 -1243.7969 C -1301.2222 -1243.8186 -1302.3326 -1243.8817 -1303.4584 -1243.8817 z M -1276.981 -1241.8379 C -1278.6892 -1239.8674 -1280.6252 -1238.1069 -1282.7512 -1236.5473 C -1201.1556 -1226.3592 -1138.054 -1156.8446 -1138.054 -1072.4777 C -1138.054 -988.15613 -1201.088 -918.6709 -1282.6199 -908.42465 C -1280.5122 -906.86721 -1278.6018 -905.09276 -1276.9081 -903.1304 C -1194.8786 -915.90074 -1132.0544 -986.8804 -1132.0544 -1072.4777 C -1132.0544 -1158.1005 -1194.9155 -1229.0985 -1276.981 -1241.8379 z M -1330.0098 -1241.8245 C -1412.0388 -1229.0537 -1474.8629 -1158.0746 -1474.8629 -1072.4777 C -1474.8629 -986.85452 -1412.0008 -915.85646 -1329.9348 -903.11748 C -1328.2264 -905.08796 -1326.2903 -906.84851 -1324.1641 -908.40812 C -1405.7603 -918.59548 -1468.8628 -988.11034 -1468.8628 -1072.4777 C -1468.8628 -1156.7989 -1405.8293 -1226.2835 -1324.298 -1236.5302 C -1326.4056 -1238.0877 -1328.3161 -1239.8621 -1330.0098 -1241.8245 z M -1306.8158 -907.15806 L -1306.8153 -901.15791 C -1305.6947 -901.13628 -1304.5842 -901.07316 -1303.4584 -901.07316 C -1302.3306 -901.07316 -1301.2184 -901.13672 -1300.0958 -901.15843 L -1300.0953 -906.34985 L -1300.0964 -907.15806 C -1301.2186 -907.13563 -1302.3308 -907.07332 -1303.4584 -907.07332 C -1304.5845 -907.07332 -1305.6952 -907.13569 -1306.8158 -907.15806 z " /><path
       id="path20-9"
       style="fill:#6baa4a;fill-opacity:1;stroke:#000000;stroke-width:4;stroke-dasharray:none;stroke-opacity:1;paint-order:markers fill stroke"
       d="m -1313.8179,-1238.602 v -17.6469 c 0,-5.7215 4.6381,-10.3596 10.3596,-10.3596 5.7214,0 10.3596,4.6381 10.3596,10.3596 v 17.5844 c 10.7016,-4.2393 17.7406,-14.5709 17.7694,-26.0816 -10e-5,-9.5701 -4.8659,-18.4836 -12.9155,-23.6596 -1.3972,7.3039 -7.7772,12.5914 -15.2135,12.6085 -7.4405,-9e-4 -13.8343,-5.2804 -15.243,-12.5863 -8.0317,5.1787 -12.8848,14.0809 -12.886,23.6374 0,11.5335 7.0466,21.8964 17.7694,26.1441 z"
       sodipodi:nodetypes="ccccccccccc"
       inkscape:transform-center-x="5e-06"
       inkscape:transform-center-y="-191.02677" /><path
       id="path66"
       style="color:#000000;fill:#6baa4a;-inkscape-stroke:none;paint-order:markers fill stroke"
       d="M -435.10161 -108.97423 C -436.15366 -107.2741 -437.37612 -105.69162 -438.7417 -104.24428 C -426.46488 -95.380441 -415.31503 -85.064758 -405.48791 -73.583105 C -404.25394 -74.581115 -402.94329 -75.503715 -401.57084 -76.351929 L -401.39979 -76.542098 L -400.71663 -76.936389 L -400.71404 -76.938973 C -400.67106 -76.963779 -400.62481 -76.979991 -400.58175 -77.004602 C -410.77037 -88.978232 -422.34231 -99.739507 -435.10161 -108.97423 z M -365.41025 -16.190743 L -365.60042 -16.081189 C -367.29938 -15.10596 -369.06442 -14.31743 -370.8616 -13.65033 C -363.85278 6.1429026 -359.96511 27.41524 -359.96511 49.620227 C -359.96511 142.5921 -426.79533 219.84335 -515.04608 236.11014 C -514.80157 237.6681 -514.65693 239.25374 -514.6089 240.8561 L -514.52983 241.0995 L -514.53035 241.88808 L -514.52932 241.8917 C -514.52933 241.96478 -514.54281 242.03571 -514.54327 242.10874 C -423.25608 225.54482 -353.96547 145.6694 -353.96547 49.620227 C -353.96547 26.5168 -358.04731 4.3837581 -365.41025 -16.190743 z M -741.6984 87.25824 C -726.34927 165.95299 -663.83361 227.81644 -584.79118 242.16093 L -584.79066 241.87257 C -584.78579 239.92721 -584.59095 238.01702 -584.27441 236.13959 C -658.89835 222.38191 -718.16989 164.98261 -734.69624 91.360315 C -737.15834 90.197965 -739.49741 88.820083 -741.6984 87.25824 z " /><path
       style="color:#000000;fill:#6baa4a;-inkscape-stroke:none;paint-order:markers fill stroke"
       d="m -549.66051,-146.0748 c -95.16591,0 -174.47541,68.014544 -192.03789,158.057014 2.20099,-1.561845 4.54006,-2.9392077 7.00216,-4.1015581 19.01198,-84.6963709 94.58315,-147.9553059 185.03573,-147.9553059 21.26585,0 41.68798,3.54773 60.77149,9.99577 0.39347,-1.98569 0.98407,-3.90143 1.75751,-5.72265 -19.64347,-6.62664 -40.6559,-10.27327 -62.529,-10.27327 z"
       id="circle8-9" /><path
       id="path1-42"
       style="fill:#6baa4a;fill-opacity:1;stroke:#000000;stroke-width:4;stroke-dasharray:none;stroke-opacity:1;paint-order:markers fill stroke"
       d="m -539.30081,215.74578 v 17.64693 c 3e-5,5.72145 -4.63812,10.35961 -10.35957,10.35958 -5.72145,3e-5 -10.35961,-4.63813 -10.35958,-10.35958 v -17.5844 c -10.70167,4.23926 -17.74065,14.57091 -17.76946,26.0816 1.4e-4,9.57009 4.86592,18.48357 12.91549,23.65955 1.39727,-7.30388 7.77724,-12.59141 15.21355,-12.60853 7.44049,9.7e-4 13.83427,5.2804 15.24299,12.58631 8.0317,-5.17863 12.88479,-14.08083 12.88604,-23.63733 -0.003,-11.53352 -7.04662,-21.89645 -17.76946,-26.14413 z"
       sodipodi:nodetypes="ccccccccccc"
       inkscape:transform-center-x="-2.1533203e-06"
       inkscape:transform-center-y="191.02677" /><path
       style="color:#000000;fill:#6baa4a;-inkscape-stroke:none;paint-order:markers fill stroke"
       d="m -549.66051,-97.092265 c -67.36039,0 -124.11838,45.477059 -141.32884,107.373808 1.81161,1.112609 3.54203,2.344867 5.17746,3.68918 15.77409,-60.468127 70.72211,-105.063354 136.15138,-105.063354 77.74902,0 140.71286,62.963846 140.71286,140.712858 0,77.749013 -62.96384,140.712863 -140.71286,140.712863 -65.4291,0 -120.37712,-44.59496 -136.15138,-105.062843 -1.63543,1.344316 -3.36584,2.576571 -5.17746,3.689181 17.21046,61.896752 73.96845,107.373812 141.32884,107.373812 80.99165,0 146.71301,-65.72136 146.71301,-146.713013 0,-80.991639 -65.72136,-146.712492 -146.71301,-146.712492 z"
       id="circle6-3" /><path
       id="circle7-3"
       style="color:#000000;fill:#6baa4a;-inkscape-stroke:none;paint-order:markers fill stroke"
       d="M -549.66051 -121.78378 C -603.56491 -121.78378 -651.64834 -96.855588 -683.06115 -57.914811 C -682.22323 -55.473404 -681.67917 -52.940881 -681.39458 -50.346798 C -651.20586 -90.103999 -603.46306 -115.78363 -549.66051 -115.78363 C -495.92046 -115.78363 -448.20788 -90.16917 -417.99981 -50.496659 C -417.70576 -53.063029 -417.13617 -55.569213 -416.30017 -57.984058 C -447.7279 -96.878809 -495.78841 -121.78378 -549.66051 -121.78378 z M -402.92631 -38.976432 L -407.47022 -36.353337 L -408.0955 -35.991602 C -406.93624 -34.078066 -405.82969 -32.129459 -404.74687 -30.166117 L -399.57613 -33.151465 C -400.66108 -35.113655 -401.7676 -37.062211 -402.92631 -38.976432 z M -696.33734 -38.941809 C -697.49585 -37.026797 -698.61826 -35.088611 -699.70303 -33.125627 L -695.21131 -30.531986 L -694.52557 -30.136662 C -693.44286 -32.100935 -692.32264 -34.040453 -691.1635 -35.954911 L -696.33734 -38.941809 z M -397.11271 -14.430127 C -388.83693 5.2684132 -384.25613 26.905883 -384.25613 49.620227 C -384.25613 133.94171 -447.29017 203.427 -528.82198 213.67326 C -526.71422 215.23078 -524.80344 217.00506 -523.10967 218.96751 C -441.08053 206.19688 -378.2565 135.21723 -378.2565 49.620227 C -378.2565 27.844518 -382.36452 7.0353836 -389.77776 -12.131559 C -392.29155 -12.618753 -394.74001 -13.396122 -397.11271 -14.430127 z M -702.18608 -14.345378 C -704.55859 -13.314709 -707.01713 -12.55416 -709.52982 -12.070064 C -711.49249 -6.9895258 -713.24901 -1.8067029 -714.72847 3.4938436 C -712.66071 3.5087546 -710.6264 3.6638332 -708.63116 3.9434285 C -706.83752 -2.3146993 -704.67378 -8.4150601 -702.18608 -14.345378 z M -708.63116 95.297026 C -710.6264 95.576621 -712.66071 95.731699 -714.72847 95.746611 C -696.87573 159.70932 -642.85945 208.5958 -576.12091 218.95769 C -574.43293 217.01401 -572.5234 215.27472 -570.42823 213.73114 C -636.66275 205.43815 -690.65996 158.00009 -708.63116 95.297026 z M -546.29999 214.93985 C -547.4217 214.96226 -548.53341 215.0246 -549.66051 215.0246 C -550.7859 215.0246 -551.89948 214.97667 -553.01947 214.95432 L -553.01947 220.95396 C -551.89931 220.97558 -550.78584 221.02475 -549.66051 221.02475 C -548.53325 221.02475 -547.42156 220.96118 -546.29947 220.93949 L -546.29947 215.74807 L -546.29999 214.93985 z " /><path
       id="path24"
       style="fill:#6baa4a;fill-opacity:1;stroke:#000000;stroke-width:4;stroke-dasharray:none;stroke-opacity:1;paint-order:markers fill stroke"
       d="m -698.70859,-24.469958 -15.28268,-8.823465 c -4.95494,-2.860699 -6.65263,-9.196535 -3.79188,-14.151441 2.8607,-4.954936 9.19654,-6.65262 14.15145,-3.791869 l 15.22854,8.7922 c 1.67953,-11.387548 -3.74846,-22.649309 -13.7026,-28.429604 -8.28801,-4.784924 -18.4402,-5.027775 -26.94752,-0.644633 5.62671,4.862012 7.01586,13.030993 3.31253,19.479586 -3.72108,6.443169 -11.49009,9.340629 -18.52155,6.907662 0.46897,9.544971 5.75196,18.19897 14.0275,22.978303 9.98983,5.764162 22.4862,4.845673 31.52621,-2.316739 z"
       sodipodi:nodetypes="ccccccccccc"
       inkscape:transform-center-x="166.52131"
       inkscape:transform-center-y="-96.136276" /><path
       id="path26"
       style="fill:#6baa4a;fill-opacity:1;stroke:#000000;stroke-width:4;stroke-dasharray:none;stroke-opacity:1;paint-order:markers fill stroke"
       d="m -410.97177,-42.413273 15.28269,-8.823457 c 4.9549,-2.860754 11.29074,-1.163079 14.15144,3.791856 2.86075,4.954907 1.16307,11.290748 -3.79187,14.15145 l -15.22853,8.792202 c 9.02214,7.14829 21.4891,8.078393 31.47205,2.348003 8.28788,-4.785165 13.57429,-13.455794 14.03203,-23.014921 -7.02398,2.441868 -14.7931,-0.439583 -18.52608,-6.871058 -3.71941,-6.444134 -2.34418,-14.621024 3.27857,-19.493963 -8.50068,-4.366346 -18.63675,-4.118142 -26.91355,0.65902 -9.98682,5.769365 -15.43957,17.050783 -13.75675,28.460868 z"
       sodipodi:nodetypes="ccccccccccc"
       inkscape:transform-center-x="-166.49649"
       inkscape:transform-center-y="-96.151104" /><path
       id="path1-3"
       style="fill:#6baa4a;fill-opacity:1;stroke:#000000;stroke-width:4;stroke-dasharray:none;stroke-opacity:1;paint-order:markers fill stroke"
       d="m -1441.6874,-28.398902 v 17.64693 c 0,5.7214498 -4.6382,10.35960976 -10.3596,10.35957976 -5.7215,3e-5 -10.3596,-4.63812996 -10.3596,-10.35957976 v -17.5844 c -10.7017,4.23926 -17.7406,14.57091 -17.7694,26.0815998 10e-5,9.57009 4.8659,18.4835702 12.9154,23.6595502 1.3973,-7.30388 7.7773,-12.5914102 15.2136,-12.6085302 7.4405,9.7e-4 13.8343,5.2804002 15.243,12.5863102 8.0317,-5.17863 12.8848,-14.0808302 12.886,-23.6373302 -0,-11.5335198 -7.0466,-21.8964498 -17.7694,-26.1441298 z"
       sodipodi:nodetypes="ccccccccccc"
       inkscape:transform-center-x="-2.1533203e-06"
       inkscape:transform-center-y="191.02677" /><path
       style="color:#000000;fill:#6baa4a;-inkscape-stroke:none;paint-order:markers fill stroke"
       d="m -1452.0472,-341.23716 c -80.9917,0 -146.7129,65.72117 -146.7129,146.71289 0,80.99173 65.7212,146.712898 146.7129,146.712898 80.9918,0 146.7129,-65.721168 146.7129,-146.712898 0,-80.99172 -65.7211,-146.71289 -146.7129,-146.71289 z m 0,6 c 77.7491,0 140.7129,62.9638 140.7129,140.71289 0,77.74909 -62.9638,140.712898 -140.7129,140.712898 -77.7491,0 -140.7129,-62.963808 -140.7129,-140.712898 0,-77.74909 62.9638,-140.71289 140.7129,-140.71289 z"
       id="circle6-8" /><path
       id="circle7-9"
       style="color:#000000;fill:#6baa4a;-inkscape-stroke:none;paint-order:markers fill stroke"
       d="M -1452.0473 -365.92857 C -1546.6755 -365.92857 -1623.4513 -289.15225 -1623.4513 -194.52404 C -1623.4513 -108.91661 -1560.6125 -37.92964 -1478.5687 -25.17159 C -1476.8698 -27.133485 -1474.9521 -28.909871 -1472.8393 -30.465324 C -1554.3937 -40.69095 -1617.4517 -110.18644 -1617.4517 -194.52404 C -1617.4517 -285.90961 -1543.4328 -359.92842 -1452.0473 -359.92842 C -1360.6617 -359.92842 -1286.6429 -285.90961 -1286.6429 -194.52404 C -1286.6429 -110.21809 -1349.6533 -40.743498 -1431.1633 -30.477209 C -1429.0603 -28.920487 -1427.1509 -27.143625 -1425.4608 -25.183476 C -1343.4491 -37.969177 -1280.6428 -108.93944 -1280.6428 -194.52404 C -1280.6428 -289.15225 -1357.4191 -365.92857 -1452.0473 -365.92857 z M -1455.4042 -29.204936 L -1455.4042 -23.204785 C -1454.2835 -23.183148 -1453.1731 -23.120036 -1452.0473 -23.120036 C -1450.9194 -23.120036 -1449.8069 -23.183587 -1448.6842 -23.205302 L -1448.6842 -28.3962 L -1448.6847 -29.204936 C -1449.8071 -29.182496 -1450.9195 -29.120186 -1452.0473 -29.120186 C -1453.1732 -29.120186 -1454.2837 -29.182571 -1455.4042 -29.204936 z " /><path
       style="color:#000000;fill:#6baa4a;-inkscape-stroke:none;paint-order:markers fill stroke"
       d="m 194.49023,-723.12695 c -25.44379,0 -46.13476,20.69097 -46.13476,46.13476 0,25.4438 20.69097,46.13477 46.13476,46.13477 25.4438,0 46.13477,-20.69097 46.13477,-46.13477 0,-25.44379 -20.69097,-46.13476 -46.13477,-46.13476 z m 0,6 c 22.20116,0 40.13477,17.9336 40.13477,40.13476 0,22.20116 -17.93361,40.13477 -40.13477,40.13477 -22.20115,0 -40.13476,-17.93361 -40.13476,-40.13477 0,-22.20116 17.93361,-40.13476 40.13476,-40.13476 z"
       id="path35" /><path
       style="color:#000000;fill:#6baa4a;-inkscape-stroke:none;paint-order:markers fill stroke"
       d="m 498.63477,-737.51172 c -16.18194,0 -29.36524,13.1833 -29.36524,29.36524 0,16.18194 13.1833,29.36328 29.36524,29.36328 16.18194,0 29.36328,-13.18134 29.36328,-29.36328 0,-16.18194 -13.18134,-29.36524 -29.36328,-29.36524 z m 0,6 c 12.9393,0 23.36328,10.42593 23.36328,23.36524 0,12.9393 -10.42398,23.36328 -23.36328,23.36328 -12.93931,0 -23.36524,-10.42398 -23.36524,-23.36328 0,-12.93931 10.42593,-23.36524 23.36524,-23.36524 z"
       id="path37" /><path
       style="color:#000000;fill:#6baa4a;-inkscape-stroke:none;paint-order:markers fill stroke"
       d="m 330.51352,-995.95247 c -80.99173,0 -146.7129,65.72117 -146.7129,146.71289 0,80.99173 65.72117,146.7129 146.7129,146.7129 80.99173,0 146.71289,-65.72117 146.71289,-146.7129 0,-80.99172 -65.72116,-146.71289 -146.71289,-146.71289 z m 0,6 c 77.74909,0 140.71289,62.9638 140.71289,140.71289 0,77.74909 -62.9638,140.7129 -140.71289,140.7129 -77.7491,0 -140.7129,-62.96381 -140.7129,-140.7129 0,-77.74909 62.9638,-140.71289 140.7129,-140.71289 z"
       id="circle6-4" /><path
       style="color:#000000;fill:#6baa4a;-inkscape-stroke:none;paint-order:markers fill stroke"
       d="m -597.78005,-481.76971 c -25.44379,0 -46.13476,20.69097 -46.13476,46.13476 0,25.4438 20.69097,46.13477 46.13476,46.13477 25.4438,0 46.13477,-20.69097 46.13477,-46.13477 0,-25.44379 -20.69097,-46.13476 -46.13477,-46.13476 z m 0,6 c 22.20116,0 40.13477,17.9336 40.13477,40.13476 0,22.20116 -17.93361,40.13477 -40.13477,40.13477 -22.20115,0 -40.13476,-17.93361 -40.13476,-40.13477 0,-22.20116 17.93361,-40.13476 40.13476,-40.13476 z"
       id="path35-6" /><path
       style="color:#000000;fill:#6baa4a;-inkscape-stroke:none;paint-order:markers fill stroke"
       d="m -715.06485,3.485645 c -25.44379,0 -46.13476,20.69097 -46.13476,46.13476 0,25.4438 20.69097,46.13477 46.13476,46.13477 25.4438,0 46.13477,-20.69097 46.13477,-46.13477 0,-25.44379 -20.69097,-46.13476 -46.13477,-46.13476 z m 0,6 c 22.20116,0 40.13477,17.9336 40.13477,40.13476 0,22.20116 -17.93361,40.13477 -40.13477,40.13477 -22.20115,0 -40.13476,-17.93361 -40.13476,-40.13477 0,-22.20116 17.93361,-40.13476 40.13476,-40.13476 z"
       id="path35-6-3" /><path
       style="color:#000000;fill:#6baa4a;-inkscape-stroke:none;paint-order:markers fill stroke"
       d="m -293.63551,-496.15448 c -16.18194,0 -29.36524,13.1833 -29.36524,29.36524 0,16.18194 13.1833,29.36328 29.36524,29.36328 16.18194,0 29.36328,-13.18134 29.36328,-29.36328 0,-16.18194 -13.18134,-29.36524 -29.36328,-29.36524 z m 0,6 c 12.9393,0 23.36328,10.42593 23.36328,23.36524 0,12.9393 -10.42398,23.36328 -23.36328,23.36328 -12.93931,0 -23.36524,-10.42398 -23.36524,-23.36328 0,-12.93931 10.42593,-23.36524 23.36524,-23.36524 z"
       id="path37-3" /><path
       style="color:#000000;fill:#6baa4a;-inkscape-stroke:none;paint-order:markers fill stroke"
       d="m -460.08643,-153.73557 c -16.18194,0 -29.36524,13.1833 -29.36524,29.36524 0,16.18194 13.1833,29.363285 29.36524,29.363285 16.18194,0 29.36328,-13.181345 29.36328,-29.363285 0,-16.18194 -13.18134,-29.36524 -29.36328,-29.36524 z m 0,6 c 12.9393,0 23.36328,10.42593 23.36328,23.36524 0,12.9393 -10.42398,23.36328 -23.36328,23.36328 -12.93931,0 -23.36524,-10.42398 -23.36524,-23.36328 0,-12.93931 10.42593,-23.36524 23.36524,-23.36524 z"
       id="path37-3-4" /><path
       style="color:#000000;fill:#6baa4a;-inkscape-stroke:none;paint-order:markers fill stroke"
       d="m -362.16271,-756.63987 c -16.18194,0 -29.36524,13.1833 -29.36524,29.36524 0,16.18194 13.1833,29.36328 29.36524,29.36328 16.18194,0 29.36328,-13.18134 29.36328,-29.36328 0,-16.18194 -13.18134,-29.36524 -29.36328,-29.36524 z m 0,6 c 12.9393,0 23.36328,10.42593 23.36328,23.36524 0,12.9393 -10.42398,23.36328 -23.36328,23.36328 -12.93931,0 -23.36524,-10.42398 -23.36524,-23.36328 0,-12.93931 10.42593,-23.36524 23.36524,-23.36524 z"
       id="path37-3-2" /><path
       style="color:#000000;fill:#6baa4a;-inkscape-stroke:none;paint-order:markers fill stroke"
       d="m -1469.82,-984.79913 c -16.182,0 -29.3653,13.1832 -29.3653,29.3652 0,16.1819 13.1833,29.3633 29.3653,29.3633 16.1819,0 29.3633,-13.1814 29.3633,-29.3633 0,-16.182 -13.1814,-29.3652 -29.3633,-29.3652 z m 0,6 c 12.9393,0 23.3633,10.4259 23.3633,23.3652 0,12.9393 -10.424,23.3633 -23.3633,23.3633 -12.9393,0 -23.3653,-10.424 -23.3653,-23.3633 0,-12.9393 10.426,-23.3652 23.3653,-23.3652 z"
       id="path37-3-2-6" /><path
       style="color:#000000;fill:#6baa4a;-inkscape-stroke:none;paint-order:markers fill stroke"
       d="m 393.41797,-1103.6641 c -16.18194,0 -29.36328,13.1833 -29.36328,29.3653 0,16.1819 13.18134,29.3633 29.36328,29.3633 16.18194,0 29.36523,-13.1814 29.36523,-29.3633 0,-16.182 -13.18329,-29.3653 -29.36523,-29.3653 z m 0,6 c 12.9393,0 23.36523,10.426 23.36523,23.3653 0,12.9393 -10.42593,23.3633 -23.36523,23.3633 -12.9393,0 -23.36328,-10.424 -23.36328,-23.3633 0,-12.9393 10.42398,-23.3653 23.36328,-23.3653 z"
       id="path39" /><path
       style="color:#000000;fill:#6baa4a;-inkscape-stroke:none;paint-order:markers fill stroke"
       d="m 376.58203,-1026.957 c -9.47959,0 -17.23047,7.7489 -17.23047,17.2285 0,9.4796 7.75088,17.2285 17.23047,17.2285 9.47959,0 17.22852,-7.7489 17.22852,-17.2285 0,-9.4796 -7.74893,-17.2285 -17.22852,-17.2285 z m 0,6 c 6.23696,0 11.22852,4.9915 11.22852,11.2285 0,6.2369 -4.99156,11.2285 -11.22852,11.2285 -6.23695,0 -11.23047,-4.9916 -11.23047,-11.2285 0,-6.237 4.99352,-11.2285 11.23047,-11.2285 z"
       id="path43" /><path
       style="color:#000000;fill:#6baa4a;-inkscape-stroke:none;paint-order:markers fill stroke"
       d="m 330.51367,-1056.1641 c -9.47959,0 -17.22851,7.749 -17.22851,17.2286 0,9.4795 7.74892,17.2285 17.22851,17.2285 9.47959,0 17.22852,-7.749 17.22852,-17.2285 0,-9.4796 -7.74893,-17.2286 -17.22852,-17.2286 z m 0,6 c 6.23696,0 11.22852,4.9916 11.22852,11.2286 0,6.2369 -4.99156,11.2285 -11.22852,11.2285 -6.23695,0 -11.22851,-4.9916 -11.22851,-11.2285 0,-6.237 4.99156,-11.2286 11.22851,-11.2286 z"
       id="path41" /><circle
       style="fill:none;fill-opacity:0.465718;stroke:none;stroke-width:6;stroke-dasharray:none;stroke-opacity:1;paint-order:markers fill stroke"
       id="circle32"
       cx="330.51367"
       cy="-1038.9351"
       r="14.228677" /><path
       id="path45"
       style="opacity:1;fill:none;fill-opacity:0.465718;stroke:#6baa4a;stroke-width:6.00001;stroke-dasharray:none;stroke-opacity:1;paint-order:markers fill stroke"
       d="M 370.4941 -1061.4113 L 342.88609 -1045.8906 " /><path
       id="path44"
       style="opacity:1;fill:none;fill-opacity:0.465718;stroke:#6baa4a;stroke-width:6.00001;stroke-dasharray:none;stroke-opacity:1;paint-order:markers fill stroke"
       d="M 380.1707 -1023.494 L 386.77797 -1048.8321 " /><path
       id="rect73"
       style="opacity:1;fill:#000000;fill-opacity:1;stroke:none;stroke-width:1.98156;paint-order:markers fill stroke"
       d="m -1453.4697,-240.21627 v 44.26966 h -44.2697 v 2.84559 h 44.2697 v 44.26966 h 2.8456 v -44.26966 h 44.2696 v -2.84559 h -44.2696 v -44.26966 z" /><path
       id="rect73-4"
       style="fill:#000000;fill-opacity:1;stroke:none;stroke-width:1.98156;paint-order:markers fill stroke"
       d="m -1304.8814,-1118.1699 v 44.2696 h -44.2697 v 2.8456 h 44.2697 v 44.2697 h 2.8456 v -44.2697 h 44.2696 v -2.8456 h -44.2696 v -44.2696 z" /><path
       id="rect73-49"
       style="fill:#000000;fill-opacity:1;stroke:none;stroke-width:1.98156;paint-order:markers fill stroke"
       d="m -548.98003,3.928292 v 44.26966 h -44.2697 v 2.84559 h 44.2697 v 44.269656 h 2.8456 V 51.043542 h 44.2696 v -2.84559 h -44.2696 V 3.928292 Z" /><path
       id="rect73-49-8"
       style="fill:#000000;fill-opacity:1;stroke:none;stroke-width:1.98156;paint-order:markers fill stroke"
       d="m -463.17906,-653.57422 v 44.26966 h -44.2697 v 2.84559 h 44.2697 v 44.26966 h 2.8456 v -44.26966 h 44.2696 v -2.84559 h -44.2696 v -44.26966 z" /><path
       id="rect73-49-9"
       style="fill:#000000;fill-opacity:1;stroke:none;stroke-width:1.98156;paint-order:markers fill stroke"
       d="m 329.09092,-894.9316 v 44.26966 h -44.2697 v 2.84559 h 44.2697 v 44.26966 h 2.8456 v -44.26966 h 44.2696 v -2.84559 h -44.2696 v -44.26966 z" /></g></svg>
